<svg xmlns="http://www.w3.org/2000/svg" version="1.1" xmlns:xlink="http://www.w3.org/1999/xlink" xmlns:svgjs="http://svgjs.com/svgjs" width="1440" height="560" preserveAspectRatio="none" viewBox="0 0 1440 560"><g mask="url(&quot;#SvgjsMask1145&quot;)" fill="none"><rect width="1440" height="560" x="0" y="0" fill="rgba(199, 0, 50, 1)"></rect><path d="M0,415.936C77.339,421.379,139.617,359.752,209.119,325.395C288.583,286.113,401.507,280.805,437.356,199.734C473.27,118.517,409.402,28.469,376.974,-54.201C351.043,-120.307,319.842,-183.709,267.939,-232.17C219.53,-277.369,155.077,-294.136,93.602,-318.779C25.097,-346.24,-39.208,-385.161,-113.011,-384.88C-202.083,-384.541,-301.697,-378.8,-365.874,-317.031C-430.915,-254.43,-442.924,-154.371,-446.236,-64.159C-449.325,19.979,-432.517,106.569,-383.948,175.343C-339.16,238.764,-256.81,256.005,-191.019,297.232C-126.181,337.861,-76.327,410.564,0,415.936" fill="#9f0028"></path><path d="M1440 982.111C1538.048 984.942 1644.774 1060.067 1727.2350000000001 1006.947 1809.71 953.818 1782.229 824.142 1823.434 735.109 1864.944 645.417 1965.81 582.668 1969.304 483.898 1972.9180000000001 381.722 1908.628 289.214 1841.9479999999999 211.70999999999998 1775.109 134.02100000000002 1692.176 62.89100000000002 1591.341 44.58100000000002 1494.041 26.91300000000001 1403.911 86.101 1309.336 114.99799999999999 1215.972 143.52499999999998 1106.263 141.72500000000002 1039.695 213.13400000000001 972.604 285.104 976.918 394.097 958.9739999999999 490.839 940.225 591.92 893.468 696.668 932.358 791.833 971.572 887.7919999999999 1066.164 954.277 1163.231 990.6610000000001 1251.446 1023.726 1345.831 979.392 1440 982.111" fill="#ef003c"></path></g><defs><mask id="SvgjsMask1145"><rect width="1440" height="560" fill="#ffffff"></rect></mask></defs></svg>