<?xml version="1.0" standalone="no"?>
<svg viewBox="0 0 200 200" xmlns="http://www.w3.org/2000/svg">
  <path fill="#FA4D56" d="M44.7,-64.8C57.5,-61.4,67.1,-48.2,71.8,-34C76.6,-19.7,76.4,-4.4,74.2,10.7C72.1,25.7,67.9,40.5,57.9,47.9C47.9,55.2,32.1,55.2,17.5,59.4C2.9,63.6,-10.4,72.1,-21.9,70.5C-33.4,69,-43.2,57.5,-48.8,45.4C-54.3,33.4,-55.5,20.8,-60.9,6.6C-66.2,-7.5,-75.7,-23.2,-73.9,-36.5C-72.1,-49.7,-59,-60.5,-44.8,-63.4C-30.6,-66.2,-15.3,-61.1,0.3,-61.6C16,-62.1,31.9,-68.3,44.7,-64.8Z" transform="translate(100 100)" />
</svg>
