<?xml version="1.0" standalone="no"?>
<svg viewBox="0 0 200 200" xmlns="http://www.w3.org/2000/svg">
  <path fill="#FF0066" d="M32.4,-50.7C42.9,-50,53,-43.2,55.4,-33.8C57.7,-24.3,52.2,-12.2,50.3,-1.1C48.3,9.9,49.7,19.7,48.9,31.7C48,43.7,44.8,57.9,36.3,68C27.7,78,13.9,84,0.6,82.9C-12.6,81.8,-25.3,73.8,-31.2,62.2C-37.1,50.6,-36.3,35.6,-39,24.6C-41.6,13.7,-47.7,6.8,-52,-2.5C-56.3,-11.8,-58.8,-23.6,-56.7,-35.5C-54.6,-47.4,-47.9,-59.3,-37.6,-60.2C-27.4,-61,-13.7,-50.9,-1.4,-48.5C10.9,-46,21.9,-51.4,32.4,-50.7Z" transform="translate(100 100)" />
</svg>
